<?xml version="1.0" encoding="UTF-8" standalone="no"?>
<svg
   xmlns:dc="http://purl.org/dc/elements/1.1/"
   xmlns:cc="http://creativecommons.org/ns#"
   xmlns:rdf="http://www.w3.org/1999/02/22-rdf-syntax-ns#"
   xmlns:svg="http://www.w3.org/2000/svg"
   xmlns="http://www.w3.org/2000/svg"
   xmlns:sodipodi="http://sodipodi.sourceforge.net/DTD/sodipodi-0.dtd"
   xmlns:inkscape="http://www.inkscape.org/namespaces/inkscape"
   width="793.700787402"
   height="1122.51968504"
   version="1.1"
   id="svg2313"
   sodipodi:docname="fibonacci256-voronoi.svg"
   inkscape:version="0.92.2 5c3e80d, 2017-08-06">
  <metadata
     id="metadata2317">
    <rdf:RDF>
      <cc:Work
         rdf:about="">
        <dc:format>image/svg+xml</dc:format>
        <dc:type
           rdf:resource="http://purl.org/dc/dcmitype/StillImage" />
        <dc:title></dc:title>
      </cc:Work>
    </rdf:RDF>
  </metadata>
  <sodipodi:namedview
     pagecolor="#ffffff"
     bordercolor="#666666"
     borderopacity="1"
     objecttolerance="10"
     gridtolerance="10"
     guidetolerance="10"
     inkscape:pageopacity="0"
     inkscape:pageshadow="2"
     inkscape:window-width="1090"
     inkscape:window-height="803"
     id="namedview2315"
     showgrid="false"
     inkscape:zoom="0.29732611"
     inkscape:cx="-358.01004"
     inkscape:cy="-430.87565"
     inkscape:window-x="0"
     inkscape:window-y="0"
     inkscape:window-maximized="0"
     inkscape:current-layer="g2311" />
  <desc
     id="desc1849">/Users/justin/Downloads/fibonacci256-voronoi.dxf - scale = 1.000000, origin = (0.000000, 0.000000), method = manual</desc>
  <defs
     id="defs1863">
    <marker
       id="DistanceX"
       orient="auto"
       refX="0.0"
       refY="0.0"
       style="overflow:visible">
      <path
         d="M 3,-3 L -3,3 M 0,-5 L  0,5"
         style="stroke:#000000; stroke-width:0.5"
         id="path1851" />
    </marker>
    <pattern
       height="8"
       id="Hatch"
       patternUnits="userSpaceOnUse"
       width="8"
       x="0"
       y="0">
      <path
         d="M8 4 l-4,4"
         linecap="square"
         stroke="#000000"
         stroke-width="0.25"
         id="path1854" />
      <path
         d="M6 2 l-4,4"
         linecap="square"
         stroke="#000000"
         stroke-width="0.25"
         id="path1856" />
      <path
         d="M4 0 l-4,4"
         linecap="square"
         stroke="#000000"
         stroke-width="0.25"
         id="path1858" />
    </pattern>
    <symbol
       id="*MODEL_SPACE" />
    <symbol
       id="*PAPER_SPACE" />
  </defs>
  <g
     inkscape:groupmode="layer"
     inkscape:label="0"
     id="g2311">
    <g
       id="g3095"
       transform="translate(-314.14531,-313.69947)">
      <path
         id="path1865"
         style="fill:none;stroke:#000000"
         d="m 136.10948,1365.6945 5.98035,0.7869 -1.73594,2.4794 z"
         inkscape:connector-curvature="0" />
      <path
         id="path1867"
         style="fill:none;stroke:#000000"
         d="m 304.58117,1131.7558 -0.0287,0.3197 -27.26363,37.6161 -16.82494,-3.7939 -15.3169,-26.3723 -3.11207,0.6616 15.69753,27.0275 -13.24233,22.0418 -14.17438,-0.7665 -24.34923,-29.5957 -1.87048,-7.1525 -2.7995,1.2464 1.72081,6.5799 -13.05524,43.0906 -15.97719,2.2779 -28.23951,-23.0282 -5.40093,3.9242 -2.1362,42.7216 -16.91943,5.9247 -24.18444,-12.7192 -2.087429,2.3187 24.672749,12.9755 0.96151,25.7163 -13.09265,7.2272 -36.773676,-12.3091 -3.291969,-3.0414 -1.466079,1.6282 -0.42709,0.7396 3.06293,2.8298 12.821673,44.0818 -12.876474,10.8396 -33.908447,-4.23 -0.673021,1.1656 -0.561263,1.7276 34.526291,4.3072 9.262871,23.9864 -8.876984,10.4715 -37.997746,1.4767 -8.783205,-3.7134 -0.937814,2.8861 8.457222,3.5758 25.679812,36.3242 -7.633889,13.711 -37.422351,9.0221 -0.420699,4.0026 34.52916,29.6817 -5.383936,16.6874 -26.492827,12.3496 0.334261,3.1801 27.231193,-12.6935 20.871685,15.0077 -2.089321,14.3649 -31.810167,21.6684 -5.502576,0.9411 0.944239,2.9064 4.974348,-0.8504 42.171106,16.7282 0.827715,16.388 -24.351122,24.8996 1.570017,2.7175 24.764974,-25.3191 24.625514,7.4268 2.87244,12.9335 -8.395089,11.9963 -43.147082,-5.7865 1.909415,3.3071 40.731965,5.4614 4.43263,17.6466 -13.984248,21.6227 2.095368,2.3244 14.31345,-22.1291 25.721576,1.1754 6.12926,13.9653 -15.66652,35.7165 -2.04171,1.8596 2.4979,1.8142 1.50841,-1.3758 45.36227,-9.2031 9.80108,14.0409 -6.91767,31.8048 2.82141,1.2585 7.00081,-32.1902 24.65576,-7.2567 9.85587,10.0195 -1.97293,38.1581 -3.79765,7.1812 2.7685,1.2321 3.65783,-6.9166 38.63016,-22.7565 13.20154,9.0067 5.43643,36.8768 5.20822,1.1073 31.6611,-31.1395 16.36537,6.9808 9.51759,26.3849 h 3.21412 l -9.8128,-27.2013 16.70398,-19.5704 14.39584,3.4583 18.80165,33.8041 0.31824,3.8362 2.9813,-0.6311 -0.27855,-3.3601 20.33159,-40.9587 16.67907,0.6727 21.61131,25.3305 2.88002,-1.2813 -22.03087,-25.8217 9.43368,-23.9244 13.4589,-1.7273 29.00034,24.4913 4.72819,10.3409 2.49449,-1.8104 -4.43339,-9.7021 5.6655,-43.9597 14.7553,-4.9399 34.31051,18.9052 0.44223,0.5783 2.05608,-2.2866 -0.034,-0.049 -5.42742,-46.3257 15.09921,-8.6097 29.31778,9.2031 1.54962,-2.6835 -29.74108,-9.3354 -5.18549,-25.1906 11.10426,-9.0859 38.00693,5.4387 5.72216,3.6926 1.51559,-2.623 -5.51814,-3.5603 -19.63086,-40.7017 10.35217,-12.5519 36.0907,-2.0295 2.02209,-6.2212 -27.77577,-33.3683 8.56436,-15.9174 26.08255,-6.8346 0.33636,-3.214 -26.97824,7.0696 -18.12665,-18.2605 4.84162,-14.3218 35.54261,-15.7545 2.22236,0.01 -0.31748,-3.0248 -1.79905,-0.01 -39.43933,-23.8514 2.2186,-16.8257 25.99554,-18.4116 -0.97883,-3.0119 -26.56633,18.8171 -23.06271,-11.3733 -0.51021,-13.8755 27.12567,-26.7794 8.81008,-3.1378 -1.53827,-2.6623 -8.19775,2.9205 -43.66492,-9.3759 -3.6397,-15.4133 21.33922,-31.6033 -3.20503,-3.5603 -44.6249,1.4876 -7.32093,-16.0679 11.1345,-26.7621 -2.51337,-1.827 -11.32349,27.2213 -25.53828,3.0849 -8.21671,-12.1346 8.9008,-37.5689 3.41672,-4.4054 -2.44914,-1.7783 -3.29954,4.2565 -42.53104,16.3295 -11.78075,-11.6489 1.19433,-35.0935 -2.98206,-1.3269 -1.22457,36.0674 -23.12694,11.2176 -10.99047,-7.7121 -4.88578,-37.5314 3.40796,-10.5101 -2.9737,-0.6321 -3.28177,10.1208 -33.80488,28.3802 -14.07907,-6.2404 -12.54731,-37.0071 0.0624,-0.6879 z"
         inkscape:connector-curvature="0" />
      <path
         id="path1869"
         style="fill:none;stroke:#000000"
         d="m 317.14848,1170.1557 -11.62053,-34.2741 -25.81984,35.6242 7.41428,13.8236 11.72788,2.9805 z"
         inkscape:connector-curvature="0" />
      <path
         id="path1871"
         style="fill:none;stroke:#000000"
         d="m 372.67806,1185.9224 -4.53013,-34.7992 -31.9771,26.8456 5.21083,16.9338 8.86115,4.2047 z"
         inkscape:connector-curvature="0" />
      <path
         id="path1873"
         style="fill:none;stroke:#000000"
         d="m 276.92221,1172.7084 -16.70099,-3.7659 -13.07261,21.7599 11.73277,14.9945 8.21558,0.6557 17.18475,-19.923 z"
         inkscape:connector-curvature="0" />
      <path
         id="path1875"
         style="fill:none;stroke:#000000"
         d="m 333.18877,1178.5584 -13.97365,-6.1935 -18.05667,17.9145 9.75647,18.9721 5.25315,1.4737 22.19415,-15.3555 z"
         inkscape:connector-curvature="0" />
      <path
         id="path1877"
         style="fill:none;stroke:#000000"
         d="m 227.78154,1190.1691 -22.56603,-27.4284 -12.35452,40.7788 12.78047,11.0914 10.63937,-1.2253 z"
         inkscape:connector-curvature="0" />
      <path
         id="path1879"
         style="fill:none;stroke:#000000"
         d="m 422.70615,1196.7107 -11.69006,-11.5627 -22.83214,11.0725 2.13545,19.7839 5.79399,4.2917 25.51561,-7.2885 z"
         inkscape:connector-curvature="0" />
      <path
         id="path1881"
         style="fill:none;stroke:#000000"
         d="m 465.96662,1181.7283 -8.24692,34.8086 -25.32284,5.1867 -7.77449,-8.1192 1.08094,-16.4186 z"
         inkscape:connector-curvature="0" />
      <path
         id="path1883"
         style="fill:none;stroke:#000000"
         d="m 385.13766,1196.1683 -10.90396,-7.6532 -22.12837,13.0046 6.81675,22.8737 1.9642,0.9914 26.37166,-9.5765 z"
         inkscape:connector-curvature="0" />
      <path
         id="path1885"
         style="fill:none;stroke:#000000"
         d="m 298.27466,1191.2833 -11.63568,-2.9571 -16.94438,19.6437 15.67335,20.1479 22.59288,-17.9992 z"
         inkscape:connector-curvature="0" />
      <path
         id="path1887"
         style="fill:none;stroke:#000000"
         d="m 244.54979,1192.2879 -14.06665,-0.7608 -11.34536,22.9035 17.07966,15.1933 3.49645,-0.3174 16.48402,-22.1329 z"
         inkscape:connector-curvature="0" />
      <path
         id="path1889"
         style="fill:none;stroke:#000000"
         d="m 349.06171,1201.8935 -8.78781,-4.1699 -21.86949,15.1313 11.99358,22.8533 25.43054,-11.1084 z"
         inkscape:connector-curvature="0" />
      <path
         id="path1891"
         style="fill:none;stroke:#000000"
         d="m 171.87137,1207.1146 -28.40542,-23.164 -2.24201,44.8434 12.96227,7.4211 12.32655,-3.9447 z"
         inkscape:connector-curvature="0" />
      <path
         id="path1893"
         style="fill:none;stroke:#000000"
         d="m 203.34689,1216.6227 -12.68674,-11.0097 -15.85889,2.2613 -5.28869,24.8273 17.51847,10.5071 6.30125,-1.841 z"
         inkscape:connector-curvature="0" />
      <path
         id="path1895"
         style="fill:none;stroke:#000000"
         d="m 266.95636,1209.3747 -8.14338,-0.65 -16.23572,21.7991 19.82551,17.0548 20.14564,-18.1606 z"
         inkscape:connector-curvature="0" />
      <path
         id="path1897"
         style="fill:none;stroke:#000000"
         d="m 430.31815,1223.9278 -7.71026,-8.0549 -25.15274,7.1849 2.7779,25.4483 28.31625,-2.5342 z"
         inkscape:connector-curvature="0" />
      <path
         id="path1899"
         style="fill:none;stroke:#000000"
         d="m 466.4353,1231.5511 -8.15248,-12.0431 -24.98644,5.1175 -1.78016,22.2051 2.86488,3.145 27.34868,-0.6342 z"
         inkscape:connector-curvature="0" />
      <path
         id="path1901"
         style="fill:none;stroke:#000000"
         d="m 315.408,1213.6524 -5.19951,-1.4589 -22.27765,17.7487 17.27134,20.8029 22.30297,-11.291 0.56805,-1.6694 z"
         inkscape:connector-curvature="0" />
      <path
         id="path1903"
         style="fill:none;stroke:#000000"
         d="m 394.38236,1222.7758 -5.74108,-4.2527 -25.96687,9.4295 8.1067,25.1596 26.48127,-3.9625 z"
         inkscape:connector-curvature="0" />
      <path
         id="path1905"
         style="fill:none;stroke:#000000"
         d="m 233.7275,1231.4559 -16.95609,-15.0834 -10.5532,1.2155 -9.87063,24.3893 22.06489,13.1176 z"
         inkscape:connector-curvature="0" />
      <path
         id="path1907"
         style="fill:none;stroke:#000000"
         d="m 501.75119,1245.5554 -7.26428,-15.95 -25.21318,3.0452 -4.74334,17.9202 4.76601,7.4431 26.16188,1.2907 z"
         inkscape:connector-curvature="0" />
      <path
         id="path1909"
         style="fill:none;stroke:#000000"
         d="m 359.54345,1228.094 -1.93022,-0.9744 -26.68344,11.6561 -0.53673,1.5779 13.87128,23.4724 20.54325,-4.182 3.26926,-5.0646 z"
         inkscape:connector-curvature="0" />
      <path
         id="path1911"
         style="fill:none;stroke:#000000"
         d="m 152.38187,1238.6661 -12.86627,-7.3663 -16.79548,5.8813 0.94943,25.3909 17.10198,6.2415 8.20044,-4.2558 z"
         inkscape:connector-curvature="0" />
      <path
         id="path1913"
         style="fill:none;stroke:#000000"
         d="m 303.15702,1253.0154 -18.09372,-21.7939 -21.12187,19.0409 0.0219,4.2641 21.21071,16.0173 15.8691,-9.049 z"
         inkscape:connector-curvature="0" />
      <path
         id="path1915"
         style="fill:none;stroke:#000000"
         d="m 260.9178,1250.2896 -20.89549,-17.975 -3.45109,0.3133 -16.05356,24.7782 0.0155,0.061 24.48948,13.1758 15.91783,-15.9818 z"
         inkscape:connector-curvature="0" />
      <path
         id="path1917"
         style="fill:none;stroke:#000000"
         d="m 185.00939,1245.5218 -17.39149,-10.4304 -12.2313,3.9141 -3.36265,25.5345 22.95382,8.5523 1.23288,-0.6025 z"
         inkscape:connector-curvature="0" />
      <path
         id="path1919"
         style="fill:none;stroke:#000000"
         d="m 548.91213,1245.5524 -20.40948,30.2203 -25.53446,-3.2787 -4.9096,-11.6051 6.34201,-13.8523 z"
         inkscape:connector-curvature="0" />
      <path
         id="path1921"
         style="fill:none;stroke:#000000"
         d="m 341.77021,1265.5491 -13.61309,-23.0358 -22.04825,11.1617 -2.08217,8.352 18.40293,18.5253 12.86359,-3.233 z"
         inkscape:connector-curvature="0" />
      <path
         id="path1923"
         style="fill:none;stroke:#000000"
         d="m 217.57871,1258.117 -23.32686,-13.8678 -6.24152,1.8232 -8.66229,26.5486 25.19358,8.66 13.07451,-23.0158 z"
         inkscape:connector-curvature="0" />
      <path
         id="path1925"
         style="fill:none;stroke:#000000"
         d="m 432.17764,1252.0452 -2.83464,-3.1086 -29.02301,2.5976 4.04032,27.2244 23.32724,2.7492 2.6608,-2.0908 z"
         inkscape:connector-curvature="0" />
      <path
         id="path1927"
         style="fill:none;stroke:#000000"
         d="m 466.80948,1259.737 -4.72441,-7.3796 -26.94047,0.6248 -1.73486,25.951 26.94808,4.6885 z"
         inkscape:connector-curvature="0" />
      <path
         id="path1929"
         style="fill:none;stroke:#000000"
         d="m 401.41985,1279.5553 -4.05921,-27.363 -26.7254,3.9991 -3.20694,4.9674 9.86531,24.3696 16.41224,1.1403 z"
         inkscape:connector-curvature="0" />
      <path
         id="path1931"
         style="fill:none;stroke:#000000"
         d="m 495.38273,1262.3282 -25.79909,-1.2729 -6.49701,24.0608 0.41952,0.6909 27.80598,6.6319 8.94235,-18.596 z"
         inkscape:connector-curvature="0" />
      <path
         id="path1933"
         style="fill:none;stroke:#000000"
         d="m 283.39958,1272.9925 -20.80329,-15.7096 -15.73456,15.798 0.92524,11.3885 24.44635,9.9364 8.10975,-5.0956 z"
         inkscape:connector-curvature="0" />
      <path
         id="path1935"
         style="fill:none;stroke:#000000"
         d="m 243.85813,1273.4498 -24.04232,-12.935 -12.92561,22.7535 2.27718,6.5231 25.35192,6.5355 10.27617,-11.3374 z"
         inkscape:connector-curvature="0" />
      <path
         id="path1937"
         style="fill:none;stroke:#000000"
         d="m 374.47372,1286.6207 -9.67107,-23.8904 -20.30474,4.1337 -6.39723,11.6251 16.34836,21.3347 6.90063,0.195 z"
         inkscape:connector-curvature="0" />
      <path
         id="path1939"
         style="fill:none;stroke:#000000"
         d="m 139.30356,1271.4962 -16.97877,-6.1965 -12.9944,7.1727 3.04177,25.2911 21.57014,3.7531 3.78822,-2.8713 z"
         inkscape:connector-curvature="0" />
      <path
         id="path1941"
         style="fill:none;stroke:#000000"
         d="m 173.25355,1275.6767 -22.78451,-8.4895 -8.13165,4.2202 -1.54961,26.7477 25.58515,4.1541 z"
         inkscape:connector-curvature="0" />
      <path
         id="path1943"
         style="fill:none;stroke:#000000"
         d="m 320.12181,1282.5192 -18.02491,-18.1448 -15.68203,8.9428 -3.02061,16.1265 24.85608,13.7363 1.65581,-0.4846 z"
         inkscape:connector-curvature="0" />
      <path
         id="path1945"
         style="fill:none;stroke:#000000"
         d="m 106.32114,1272.7714 -34.066019,-11.4025 12.13946,41.7362 15.945839,2.521 9.0633,-7.2227 z"
         inkscape:connector-curvature="0" />
      <path
         id="path1947"
         style="fill:none;stroke:#000000"
         d="m 528.00379,1278.757 -25.20187,-3.2356 -9.01041,18.7313 2.24881,5.698 25.58744,7.9956 9.99305,-13.8905 z"
         inkscape:connector-curvature="0" />
      <path
         id="path1949"
         style="fill:none;stroke:#000000"
         d="m 204.05102,1284.3096 -26.50053,-9.1091 -1.20264,0.5877 -7.22457,27.9625 1.45248,2.2042 26.82707,2.8483 8.96543,-17.8561 z"
         inkscape:connector-curvature="0" />
      <path
         id="path1951"
         style="fill:none;stroke:#000000"
         d="m 426.60662,1284.4248 -23.05889,-2.7175 -7.60818,7.0164 6.42895,25.4211 10.39372,3.705 13.62896,-7.1244 z"
         inkscape:connector-curvature="0" />
      <path
         id="path1953"
         style="fill:none;stroke:#000000"
         d="m 460.52031,1286.719 -28.30486,-4.9247 -2.57764,2.0273 -0.22301,26.8089 17.88472,7.2688 7.04505,-3.1298 6.58016,-27.3857 z"
         inkscape:connector-curvature="0" />
      <path
         id="path1955"
         style="fill:none;stroke:#000000"
         d="m 351.68617,1301.1893 -15.98136,-20.8558 -12.70373,3.1929 -10.09813,19.9438 21.68351,15.0339 z"
         inkscape:connector-curvature="0" />
      <path
         id="path1957"
         style="fill:none;stroke:#000000"
         d="m 270.68298,1297.0394 -23.91724,-9.721 -10.15219,11.2003 2.50507,19.7442 27.45714,2.3702 z"
         inkscape:connector-curvature="0" />
      <path
         id="path1959"
         style="fill:none;stroke:#000000"
         d="m 233.65568,1299.2266 -24.84547,-6.4048 -8.86071,17.6478 5.6413,13.2612 27.31919,-0.6063 3.27948,-3.9239 z"
         inkscape:connector-curvature="0" />
      <path
         id="path1961"
         style="fill:none;stroke:#000000"
         d="m 491.02867,1295.4799 -27.37134,-6.528 -6.2589,26.0485 23.45953,10.9467 0.74835,-0.2585 11.64472,-24.5658 z"
         inkscape:connector-curvature="0" />
      <path
         id="path1963"
         style="fill:none;stroke:#000000"
         d="m 393.05575,1289.6546 -16.21756,-1.1267 -12.97288,13.2434 14.59391,24.2665 20.88945,-11.5011 z"
         inkscape:connector-curvature="0" />
      <path
         id="path1965"
         style="fill:none;stroke:#000000"
         d="m 306.01285,1305.3982 -24.25664,-13.4052 -8.0005,5.0271 -4.3287,24.8655 1.46007,2.0001 22.61743,4.0188 z"
         inkscape:connector-curvature="0" />
      <path
         id="path1967"
         style="fill:none;stroke:#000000"
         d="m 575.21386,1304.9359 -41.314,-8.8713 -10.06867,13.993 2.11278,10.1299 24.12847,9.5709 z"
         inkscape:connector-curvature="0" />
      <path
         id="path1969"
         style="fill:none;stroke:#000000"
         d="m 166.59438,1305.4084 -26.99792,-4.3835 -3.74701,2.8399 0.25399,28.856 27.2776,-1.3985 4.72063,-23.6266 z"
         inkscape:connector-curvature="0" />
      <path
         id="path1971"
         style="fill:none;stroke:#000000"
         d="m 132.83036,1304.3921 -21.41404,-3.7259 -8.99188,7.1652 5.08876,25.5659 25.56888,-0.3965 z"
         inkscape:connector-curvature="0" />
      <path
         id="path1973"
         style="fill:none;stroke:#000000"
         d="m 520.91718,1310.8929 -25.21698,-7.88 -11.01736,23.2475 24.64254,13.2737 13.6894,-18.5938 z"
         inkscape:connector-curvature="0" />
      <path
         id="path1975"
         style="fill:none;stroke:#000000"
         d="m 361.09793,1303.0364 -6.79707,-0.1917 -17.9607,18.1867 0.64026,6.8682 14.3554,11.8099 24.83905,-11.6036 z"
         inkscape:connector-curvature="0" />
      <path
         id="path1977"
         style="fill:none;stroke:#000000"
         d="m 197.24069,1311.8264 -26.32251,-2.7946 -4.66658,23.356 5.94406,7.6036 25.8701,-3.8313 4.88542,-10.9107 z"
         inkscape:connector-curvature="0" />
      <path
         id="path1979"
         style="fill:none;stroke:#000000"
         d="m 99.485103,1308.5518 -15.828657,-2.502 -12.781609,10.7599 9.143812,23.6772 19.548473,-0.311 5.079298,-5.6916 z"
         inkscape:connector-curvature="0" />
      <path
         id="path1981"
         style="fill:none;stroke:#000000"
         d="m 333.32938,1321.3119 -22.63822,-15.6956 -1.60066,0.4682 -13.05938,23.4981 7.12442,12.8508 9.46922,2.3724 21.32714,-16.817 z"
         inkscape:connector-curvature="0" />
      <path
         id="path1983"
         style="fill:none;stroke:#000000"
         d="m 445.65168,1320.4929 -17.67685,-7.1838 -13.46647,7.0398 3.45824,27.4824 3.11813,2.2171 20.66644,-4.249 z"
         inkscape:connector-curvature="0" />
      <path
         id="path1985"
         style="fill:none;stroke:#000000"
         d="m 411.49231,1320.6074 -10.25766,-3.6571 -21.99688,12.11 10.95688,22.8367 24.67653,-4.4516 z"
         inkscape:connector-curvature="0" />
      <path
         id="path1987"
         style="fill:none;stroke:#000000"
         d="m 478.81702,1328.3312 -23.19118,-10.8219 -6.93166,3.0792 -3.97984,25.8285 11.48223,8.8657 12.15114,-1.9832 z"
         inkscape:connector-curvature="0" />
      <path
         id="path1989"
         style="fill:none;stroke:#000000"
         d="m 267.01189,1323.7058 -28.58455,-2.4676 -3.22393,3.857 2.85617,25.7601 8.29758,4.9784 15.10375,-4.0524 6.91805,-26.2035 z"
         inkscape:connector-curvature="0" />
      <path
         id="path1991"
         style="fill:none;stroke:#000000"
         d="m 235.00497,1350.7408 -2.72541,-24.5779 -26.68989,0.5922 -4.82343,10.7725 9.97192,21.7886 z"
         inkscape:connector-curvature="0" />
      <path
         id="path1993"
         style="fill:none;stroke:#000000"
         d="m 548.95748,1332.5692 -23.79968,-9.4413 -13.78769,18.7295 0.54423,2.9609 23.54643,14.7121 14.00317,-13.1916 z"
         inkscape:connector-curvature="0" />
      <path
         id="path1995"
         style="fill:none;stroke:#000000"
         d="m 387.65861,1353.5974 -10.78639,-22.4799 -24.25286,11.3295 -0.0903,20.6392 1.12285,1.0455 29.18781,-0.2314 z"
         inkscape:connector-curvature="0" />
      <path
         id="path1997"
         style="fill:none;stroke:#000000"
         d="m 293.32876,1330.944 -22.19791,-3.9439 -6.70262,25.3859 17.59105,12.4388 18.29933,-21.2723 z"
         inkscape:connector-curvature="0" />
      <path
         id="path1999"
         style="fill:none;stroke:#000000"
         d="m 169.95516,1342.035 -6.02911,-7.7129 -27.88688,1.4295 1.89468,27.5316 4.15598,3.1982 25.32096,-7.4461 z"
         inkscape:connector-curvature="0" />
      <path
         id="path2001"
         style="fill:none;stroke:#000000"
         d="m 349.59686,1342.1941 -14.08366,-11.5861 -20.61242,16.2535 10.39672,19.7813 24.21054,-4.1753 z"
         inkscape:connector-curvature="0" />
      <path
         id="path2003"
         style="fill:none;stroke:#000000"
         d="m 508.41072,1342.4746 -25.8444,-13.9189 -0.66145,0.2287 -10.66583,25.4362 16.71685,14.1895 5.01168,-0.4422 15.97981,-22.574 z"
         inkscape:connector-curvature="0" />
      <path
         id="path2005"
         style="fill:none;stroke:#000000"
         d="m 134.87471,1362.8704 -1.84743,-26.8448 -26.06438,0.404 -5.03357,5.6409 7.24346,26.4658 z"
         inkscape:connector-curvature="0" />
      <path
         id="path2007"
         style="fill:none;stroke:#000000"
         d="m 208.11742,1360.8559 -9.91256,-21.6597 -25.32888,3.7512 -2.51415,16.7985 11.62205,13.3104 z"
         inkscape:connector-curvature="0" />
      <path
         id="path2009"
         style="fill:none;stroke:#000000"
         d="m 106.46136,1370.0825 -7.356102,-26.8754 -19.407116,0.3088 -8.809319,10.3918 11.118989,23.0883 23.004848,-4.5932 z"
         inkscape:connector-curvature="0" />
      <path
         id="path2011"
         style="fill:none;stroke:#000000"
         d="m 454.05355,1357.4464 -11.34234,-8.7575 -20.42837,4.2006 0.53292,27.0716 23.94709,2.4072 z"
         inkscape:connector-curvature="0" />
      <path
         id="path2013"
         style="fill:none;stroke:#000000"
         d="m 419.2479,1352.4529 -3.05768,-2.1732 -25.82169,4.6583 -4.91717,10.5195 4.90582,12.5405 26.42644,5.3661 3.01984,-2.6978 z"
         inkscape:connector-curvature="0" />
      <path
         id="path2015"
         style="fill:none;stroke:#000000"
         d="m 311.9543,1347.7546 -9.26514,-2.321 -18.80581,21.8608 0.48112,2.6929 27.72777,14.2265 2.89134,-0.7998 7.78277,-15.0878 z"
         inkscape:connector-curvature="0" />
      <path
         id="path2017"
         style="fill:none;stroke:#000000"
         d="m 574.03467,1360.0161 -22.76412,-11.2271 -14.10517,13.2874 0.0907,7.8481 21.3279,15.5343 13.25103,-8.7413 z"
         inkscape:connector-curvature="0" />
      <path
         id="path2019"
         style="fill:none;stroke:#000000"
         d="m 534.14554,1362.2748 -23.18746,-14.4892 -15.16722,21.4288 19.612,18.5329 18.8334,-17.6939 z"
         inkscape:connector-curvature="0" />
      <path
         id="path2021"
         style="fill:none;stroke:#000000"
         d="m 280.88959,1367.7294 -18.48417,-13.0711 -14.81008,3.9738 -1.09189,27.0221 23.93497,2.2205 10.97765,-17.1995 z"
         inkscape:connector-curvature="0" />
      <path
         id="path2023"
         style="fill:none;stroke:#000000"
         d="m 244.58268,1358.2949 -8.11049,-4.8657 -24.96,8.8203 9.97721,25.3716 17.97541,2.1006 3.98629,-3.4144 z"
         inkscape:connector-curvature="0" />
      <path
         id="path2025"
         style="fill:none;stroke:#000000"
         d="m 79.441137,1378.6348 -11.27244,-23.4066 -35.224293,1.369 24.295785,34.3665 17.024123,-3.5808 z"
         inkscape:connector-curvature="0" />
      <path
         id="path2027"
         style="fill:none;stroke:#000000"
         d="m 485.49543,1370.2874 -16.52408,-14.0262 -11.99622,1.9578 -7.45326,25.4812 5.10241,6.8609 17.34423,1.8569 z"
         inkscape:connector-curvature="0" />
      <path
         id="path2029"
         style="fill:none;stroke:#000000"
         d="m 180.01928,1375.4033 -11.75811,-13.466 -24.82735,7.3005 2.58861,21.205 10.44889,6.8954 22.69378,-13.9646 z"
         inkscape:connector-curvature="0" />
      <path
         id="path2031"
         style="fill:none;stroke:#000000"
         d="m 351.58903,1366.3419 -1.05635,-0.983 -25.06318,4.3222 -7.56964,14.6752 16.97081,15.4155 18.30388,-6.6107 z"
         inkscape:connector-curvature="0" />
      <path
         id="path2033"
         style="fill:none;stroke:#000000"
         d="m 387.58681,1379.215 -4.8076,-12.2903 -28.11361,0.2226 1.54695,26.1684 12.83793,7.7378 7.78202,-1.8713 z"
         inkscape:connector-curvature="0" />
      <path
         id="path2035"
         style="fill:none;stroke:#000000"
         d="m 140.35389,1368.9608 -4.24441,-3.2663 -27.06935,5.9671 -1.42715,2.2851 9.52705,27.6813 0.9377,0.4093 24.89537,-11.6232 z"
         inkscape:connector-curvature="0" />
      <path
         id="path2037"
         style="fill:none;stroke:#000000"
         d="m 218.63963,1388.6366 -9.75345,-24.8028 -25.8807,12.0824 -0.84209,7.8569 16.76259,19.0768 5.10464,0.035 z"
         inkscape:connector-curvature="0" />
      <path
         id="path2039"
         style="fill:none;stroke:#000000"
         d="m 513.51309,1390.1223 -20.25828,-19.1444 -4.90204,0.4328 -13.79151,22.5686 9.87216,14.5149 9.31271,1.5273 z"
         inkscape:connector-curvature="0" />
      <path
         id="path2041"
         style="fill:none;stroke:#000000"
         d="m 556.90588,1387.9748 -21.02934,-15.315 -18.61794,17.4935 19.6346,20.9333 18.17578,-11.5744 z"
         inkscape:connector-curvature="0" />
      <path
         id="path2043"
         style="fill:none;stroke:#000000"
         d="m 114.03289,1401.891 -9.08373,-26.3924 -22.837405,4.56 -5.134117,8.6763 13.233642,22.936 z"
         inkscape:connector-curvature="0" />
      <path
         id="path2045"
         style="fill:none;stroke:#000000"
         d="m 309.78785,1386.4301 -26.24543,-13.4664 -10.64881,16.6843 6.56542,17.9373 13.98349,5.6092 z"
         inkscape:connector-curvature="0" />
      <path
         id="path2047"
         style="fill:none;stroke:#000000"
         d="m 610.6243,1401.9719 -37.34559,-22.5846 -13.34929,8.806 -1.84817,11.6288 19.61957,16.7437 z"
         inkscape:connector-curvature="0" />
      <path
         id="path2049"
         style="fill:none;stroke:#000000"
         d="m 415.6271,1386.2147 -25.57987,-5.1938 -10.27272,19.0745 20.88188,16.5275 13.57226,-9.5713 z"
         inkscape:connector-curvature="0" />
      <path
         id="path2051"
         style="fill:none;stroke:#000000"
         d="m 447.04631,1385.4357 -25.20566,-2.5338 -3.14837,2.8112 -1.42487,21.2334 23.78457,11.2725 11.02486,-26.0175 z"
         inkscape:connector-curvature="0" />
      <path
         id="path2053"
         style="fill:none;stroke:#000000"
         d="m 270.1255,1390.882 -24.6928,-2.2907 -3.8778,3.3214 3.60074,26.5081 8.97336,5.1689 22.32001,-15.4307 z"
         inkscape:connector-curvature="0" />
      <path
         id="path2055"
         style="fill:none;stroke:#000000"
         d="m 196.23231,1404.3655 -15.93673,-18.1372 -22.19188,13.6558 2.321,13.7352 18.25701,11.0551 z"
         inkscape:connector-curvature="0" />
      <path
         id="path2057"
         style="fill:none;stroke:#000000"
         d="m 238.60573,1392.6656 -17.65189,-2.0629 -14.335,13.9816 15.01643,21.3408 20.46125,-7.5629 z"
         inkscape:connector-curvature="0" />
      <path
         id="path2059"
         style="fill:none;stroke:#000000"
         d="m 332.89738,1402.0641 -17.27319,-15.6899 -2.71861,0.7517 -17.09554,27.9931 5.59027,10.3272 2.55837,1.1089 26.36636,-9.5225 z"
         inkscape:connector-curvature="0" />
      <path
         id="path2061"
         style="fill:none;stroke:#000000"
         d="m 87.893292,1413.7043 -13.428285,-23.2739 -16.900157,3.555 -7.576818,13.6082 16.352882,19.457 19.448693,-7.8353 z"
         inkscape:connector-curvature="0" />
      <path
         id="path2063"
         style="fill:none;stroke:#000000"
         d="m 471.90428,1395.4518 -17.14397,-1.8353 -11.30456,26.6744 0.0718,0.1792 21.87591,9.0837 16.25955,-19.759 z"
         inkscape:connector-curvature="0" />
      <path
         id="path2065"
         style="fill:none;stroke:#000000"
         d="m 155.06191,1400.0307 -10.5819,-6.983 -24.43616,11.4085 9.58903,23.4111 7.50539,2.5395 20.27337,-16.4704 z"
         inkscape:connector-curvature="0" />
      <path
         id="path2067"
         style="fill:none;stroke:#000000"
         d="m 535.02236,1413.5119 -19.6611,-20.9597 -19.18487,19.3115 12.72186,20.8206 2.33579,0.5832 22.89258,-14.9144 z"
         inkscape:connector-curvature="0" />
      <path
         id="path2069"
         style="fill:none;stroke:#000000"
         d="m 367.02388,1403.362 -12.43729,-7.4963 -18.71771,6.7605 -2.58146,15.0186 16.70895,16.8805 8.79606,-2.9589 z"
         inkscape:connector-curvature="0" />
      <path
         id="path2071"
         style="fill:none;stroke:#000000"
         d="m 575.68251,1418.8188 -19.35871,-16.5215 -18.30803,11.6595 -0.90334,4.8937 17.1931,20.9885 16.56946,-6.8062 z"
         inkscape:connector-curvature="0" />
      <path
         id="path2073"
         style="fill:none;stroke:#000000"
         d="m 398.98963,1419.1608 -21.50819,-17.0245 -7.47438,1.7968 -8.17209,28.0018 16.64313,7.9075 19.61954,-14.0379 z"
         inkscape:connector-curvature="0" />
      <path
         id="path2075"
         style="fill:none;stroke:#000000"
         d="m 116.93178,1404.836 -1.02349,-0.4467 -25.166743,10.3325 -2.082897,5.4565 15.75609,23.4523 22.2172,-15.1128 z"
         inkscape:connector-curvature="0" />
      <path
         id="path2077"
         style="fill:none;stroke:#000000"
         d="m 203.85298,1405.9075 -4.92774,-0.034 -18.30123,21.1775 0.63193,3.0145 22.20549,14.3391 11.61373,-4.9152 4.29808,-11.5249 z"
         inkscape:connector-curvature="0" />
      <path
         id="path2079"
         style="fill:none;stroke:#000000"
         d="m 292.99656,1416.2732 -14.53457,-5.8298 -22.53088,15.5762 2.85352,11.0018 19.30999,9.4968 20.35617,-20.1695 z"
         inkscape:connector-curvature="0" />
      <path
         id="path2081"
         style="fill:none;stroke:#000000"
         d="m 64.175619,1429.1736 -16.570959,-19.716 -35.382272,8.5304 33.64596,28.9225 14.163023,-6.0125 z"
         inkscape:connector-curvature="0" />
      <path
         id="path2083"
         style="fill:none;stroke:#000000"
         d="m 440.63246,1421.3654 -24.79371,-11.7494 -13.82554,9.7485 -0.91462,6.8092 18.22865,20.7878 8.36788,-1.6437 12.99025,-23.8148 z"
         inkscape:connector-curvature="0" />
      <path
         id="path2085"
         style="fill:none;stroke:#000000"
         d="m 493.338,1413.0191 -9.17293,-1.5054 -16.60727,20.1785 3.95717,11.7483 12.95247,5.8307 21.44875,-15.6696 z"
         inkscape:connector-curvature="0" />
      <path
         id="path2087"
         style="fill:none;stroke:#000000"
         d="m 347.75282,1436.5572 -16.48216,-16.6514 -25.23247,9.1132 11.74715,22.8631 26.16376,-7.5987 z"
         inkscape:connector-curvature="0" />
      <path
         id="path2089"
         style="fill:none;stroke:#000000"
         d="m 177.64611,1427.5816 -18.46941,-11.1832 -19.86142,16.1359 7.96611,16.9637 15.05384,4.0705 15.9568,-22.9039 z"
         inkscape:connector-curvature="0" />
      <path
         id="path2091"
         style="fill:none;stroke:#000000"
         d="m 552.12852,1441.9518 -16.94364,-20.6794 -21.6869,14.1302 13.0431,24.3069 22.36352,-8.9945 z"
         inkscape:connector-curvature="0" />
      <path
         id="path2093"
         style="fill:none;stroke:#000000"
         d="m 252.89839,1426.3703 -9.28138,-5.3465 -21.37435,7.9003 -4.21078,11.2902 21.04516,19.7779 16.77165,-22.2474 z"
         inkscape:connector-curvature="0" />
      <path
         id="path2095"
         style="fill:none;stroke:#000000"
         d="m 102.40327,1446.059 -16.008181,-23.8277 -19.308097,7.7787 -4.112124,11.6326 18.137953,18.4422 21.192189,-13.5262 z"
         inkscape:connector-curvature="0" />
      <path
         id="path2097"
         style="fill:none;stroke:#000000"
         d="m 464.64379,1432.5127 -21.62267,-8.9786 -12.42709,22.7804 18.65196,16.0123 19.30584,-18.2139 z"
         inkscape:connector-curvature="0" />
      <path
         id="path2099"
         style="fill:none;stroke:#000000"
         d="m 416.87056,1448.747 -17.59369,-20.0671 -18.96569,13.5678 4.59212,22.3275 0.48379,0.3606 22.55243,-2.5103 z"
         inkscape:connector-curvature="0" />
      <path
         id="path2101"
         style="fill:none;stroke:#000000"
         d="m 302.81045,1429.3527 -2.15358,-0.9332 -20.63506,20.4454 3.26172,18.1996 29.21648,-4.311 2.8789,-8.939 z"
         inkscape:connector-curvature="0" />
      <path
         id="path2103"
         style="fill:none;stroke:#000000"
         d="m 136.34949,1433.3322 -7.62596,-2.5803 -23.35219,15.8846 -0.0926,0.4713 17.41531,22.7595 3.6015,0.2813 18.11453,-19.6513 z"
         inkscape:connector-curvature="0" />
      <path
         id="path2105"
         style="fill:none;stroke:#000000"
         d="m 377.30493,1442.6321 -17.37938,-8.2568 -9.26247,3.1159 -4.03239,8.191 7.53486,24.8836 27.5932,-6.268 z"
         inkscape:connector-curvature="0" />
      <path
         id="path2107"
         style="fill:none;stroke:#000000"
         d="m 201.54633,1446.7672 -21.23452,-13.7121 -15.57959,22.362 4.83438,9.2318 24.43505,6.1176 0.64781,-0.3825 z"
         inkscape:connector-curvature="0" />
      <path
         id="path2109"
         style="fill:none;stroke:#000000"
         d="m 589.62142,1453.9824 -17.89608,-18.0303 -16.69038,6.8561 -3.25042,8.8373 15.0161,21.3418 14.32439,-3.2038 z"
         inkscape:connector-curvature="0" />
      <path
         id="path2111"
         style="fill:none;stroke:#000000"
         d="m 510.49322,1436.1986 -2.24121,-0.559 -21.86084,15.9689 5.62015,19.5167 5.90742,3.157 25.67059,-11.0574 0.59711,-1.5106 z"
         inkscape:connector-curvature="0" />
      <path
         id="path2113"
         style="fill:none;stroke:#000000"
         d="m 277.04014,1449.3691 -19.09004,-9.3888 -16.79922,22.2838 20.09838,13.6947 18.52912,-6.2974 0.68865,-1.1713 z"
         inkscape:connector-curvature="0" />
      <path
         id="path2115"
         style="fill:none;stroke:#000000"
         d="m 237.47981,1462.6409 -21.53347,-20.2371 -11.38244,4.8178 -6.76988,23.1809 25.23441,8.3021 z"
         inkscape:connector-curvature="0" />
      <path
         id="path2117"
         style="fill:none;stroke:#000000"
         d="m 351.49077,1472.1646 -7.49366,-24.7465 -25.79416,7.491 -2.9144,9.0501 7.06283,13.008 25.3459,1.7854 z"
         inkscape:connector-curvature="0" />
      <path
         id="path2119"
         style="fill:none;stroke:#000000"
         d="m 79.272188,1462.5256 -18.393823,-18.7026 -14.056823,5.9679 -5.344247,16.5649 20.605984,14.8165 15.721695,-10.1318 z"
         inkscape:connector-curvature="0" />
      <path
         id="path2121"
         style="fill:none;stroke:#000000"
         d="m 483.38647,1452.1021 -12.78992,-5.76 -19.75938,18.6391 0.28724,5.7207 15.07275,12.6338 22.74144,-11.944 z"
         inkscape:connector-curvature="0" />
      <path
         id="path2123"
         style="fill:none;stroke:#000000"
         d="m 447.81733,1465.0844 -19.56283,-16.7951 -8.57197,1.6838 -9.10867,13.9472 13.00157,23.9293 1.42865,0.2948 23.09292,-17.432 z"
         inkscape:connector-curvature="0" />
      <path
         id="path2125"
         style="fill:none;stroke:#000000"
         d="m 161.935,1456.5925 -15.23414,-4.1193 -17.76946,19.2771 14.89549,17.4078 10.70892,-8e-4 12.29746,-23.2105 z"
         inkscape:connector-curvature="0" />
      <path
         id="path2127"
         style="fill:none;stroke:#000000"
         d="m 119.88208,1471.1682 -16.57512,-21.6619 -21.036853,13.4267 -1.454355,8.4416 20.288878,17.85 z"
         inkscape:connector-curvature="0" />
      <path
         id="path2129"
         style="fill:none;stroke:#000000"
         d="m 564.35149,1474.7653 -14.8044,-21.0486 -22.52976,9.0606 -0.61228,1.5432 11.76943,25.6876 19.70647,-3.9799 z"
         inkscape:connector-curvature="0" />
      <path
         id="path2131"
         style="fill:none;stroke:#000000"
         d="m 319.72803,1478.4718 -6.90146,-12.7101 -29.83635,4.4024 -0.50303,0.8556 12.34468,28.8896 16.82989,-3.9541 z"
         inkscape:connector-curvature="0" />
      <path
         id="path2133"
         style="fill:none;stroke:#000000"
         d="m 259.30924,1478.2957 -19.74313,-13.4529 -14.47068,16.0853 2.61808,17.1032 26.31874,2.4094 z"
         inkscape:connector-curvature="0" />
      <path
         id="path2135"
         style="fill:none;stroke:#000000"
         d="m 420.57073,1488.6558 -12.59718,-23.1916 -21.42612,2.3845 1.53823,28.7569 12.64253,4.3619 z"
         inkscape:connector-curvature="0" />
      <path
         id="path2137"
         style="fill:none;stroke:#000000"
         d="m 383.48975,1467.2931 -0.29477,-0.2207 -29.088,6.6077 -3.93868,6.8399 3.86951,13.093 21.43783,8.2465 9.59397,-5.0441 z"
         inkscape:connector-curvature="0" />
      <path
         id="path2139"
         style="fill:none;stroke:#000000"
         d="m 192.47924,1473.5021 -23.15565,-5.797 -12.03515,22.7153 10.88808,11.5601 18.96376,-0.9298 z"
         inkscape:connector-curvature="0" />
      <path
         id="path2141"
         style="fill:none;stroke:#000000"
         d="m 535.59308,1491.6272 -11.58801,-25.2895 -24.40068,10.5093 6.03974,25.9498 26.45669,-5.4289 z"
         inkscape:connector-curvature="0" />
      <path
         id="path2143"
         style="fill:none;stroke:#000000"
         d="m 222.13871,1481.5952 -26.02735,-8.5632 -0.5208,0.3076 -5.55289,28.6484 4.4504,4.3578 25.64259,-1.0582 4.67715,-6.2567 z"
         inkscape:connector-curvature="0" />
      <path
         id="path2145"
         style="fill:none;stroke:#000000"
         d="m 292.23307,1501.5232 -12.27591,-28.7294 -17.6591,6.0015 -5.47386,22.9735 4.59023,6.7692 27.99649,-2.6911 z"
         inkscape:connector-curvature="0" />
      <path
         id="path2147"
         style="fill:none;stroke:#000000"
         d="m 496.53164,1476.9687 -5.80534,-3.1004 -23.20253,12.186 0.15121,15.6918 8.23935,7.6007 26.61167,-6.6142 z"
         inkscape:connector-curvature="0" />
      <path
         id="path2149"
         style="fill:none;stroke:#000000"
         d="m 610.40508,1507.4457 -28.84917,-34.6609 -14.43405,3.2285 -6.51963,11.3506 13.08851,22.1454 z"
         inkscape:connector-curvature="0" />
      <path
         id="path2151"
         style="fill:none;stroke:#000000"
         d="m 464.4964,1485.8563 -14.89891,-12.4884 -22.19339,16.7528 13.03181,20.0387 24.21166,-8.7988 z"
         inkscape:connector-curvature="0" />
      <path
         id="path2153"
         style="fill:none;stroke:#000000"
         d="m 99.638174,1491.9613 -20.596914,-18.1205 -15.607556,10.0584 -2.073453,14.256 21.856255,13.1569 16.419028,-15.3403 z"
         inkscape:connector-curvature="0" />
      <path
         id="path2155"
         style="fill:none;stroke:#000000"
         d="m 126.16781,1473.1714 -3.70544,-0.2895 -19.80058,19.0405 -0.003,3.9621 23.20668,17.8541 15.37096,-22.9569 z"
         inkscape:connector-curvature="0" />
      <path
         id="path2157"
         style="fill:none;stroke:#000000"
         d="m 347.38243,1481.7615 -25.02879,-1.7631 -7.82246,16.9546 17.83253,18.4902 3.36114,0.072 15.41254,-21.0482 z"
         inkscape:connector-curvature="0" />
      <path
         id="path2159"
         style="fill:none;stroke:#000000"
         d="m 571.01859,1510.9266 -12.92224,-21.8573 -19.84625,4.0085 -3.5263,5.7955 9.38459,24.9302 16.63369,-0.4196 z"
         inkscape:connector-curvature="0" />
      <path
         id="path2161"
         style="fill:none;stroke:#000000"
         d="m 424.44475,1491.1166 -1.57986,-0.3261 -20.21672,12.5469 6.19087,24.7369 26.75907,-6.2286 2.59278,-9.5963 z"
         inkscape:connector-curvature="0" />
      <path
         id="path2163"
         style="fill:none;stroke:#000000"
         d="m 165.81316,1503.8816 -11.01996,-11.7007 -10.85519,8e-4 -15.31993,22.8797 22.11931,15.0312 6.04157,-1.5647 z"
         inkscape:connector-curvature="0" />
      <path
         id="path2165"
         style="fill:none;stroke:#000000"
         d="m 373.90263,1504.4939 -20.56667,-7.9113 -14.91629,20.3686 12.58847,14.2186 19.1259,-0.8089 z"
         inkscape:connector-curvature="0" />
      <path
         id="path2167"
         style="fill:none;stroke:#000000"
         d="m 541.33798,1525.0318 -9.24852,-24.5748 -25.12254,5.1556 4.7849,27.84 22.49573,-0.2759 z"
         inkscape:connector-curvature="0" />
      <path
         id="path2169"
         style="fill:none;stroke:#000000"
         d="m 254.34936,1503.5074 -27.24698,-2.4945 -4.55738,6.0926 6.29973,26.6003 0.82507,0.4082 25.84629,-8.296 3.5297,-15.3865 z"
         inkscape:connector-curvature="0" />
      <path
         id="path2171"
         style="fill:none;stroke:#000000"
         d="m 399.64726,1503.7947 -12.89196,-4.4497 -9.79769,5.1527 -3.89709,26.7477 4.28222,3.9307 27.54671,-3.4848 1.22457,-2.0485 z"
         inkscape:connector-curvature="0" />
      <path
         id="path2173"
         style="fill:none;stroke:#000000"
         d="m 329.5733,1516.9058 -17.33933,-17.9792 -17.35786,4.0781 -2.97716,4.5619 5.16021,22.0347 12.75363,6.4478 z"
         inkscape:connector-curvature="0" />
      <path
         id="path2175"
         style="fill:none;stroke:#000000"
         d="m 473.95275,1511.6485 -8.13352,-7.4986 -24.74079,8.9953 -2.62299,9.721 8.60978,13.7121 26.03716,-2.3358 z"
         inkscape:connector-curvature="0" />
      <path
         id="path2177"
         style="fill:none;stroke:#000000"
         d="m 123.70432,1515.8892 -22.46249,-17.28 -16.299591,15.2277 0.264945,10.9871 23.405486,11.7694 z"
         inkscape:connector-curvature="0" />
      <path
         id="path2179"
         style="fill:none;stroke:#000000"
         d="m 81.923153,1514.0636 -22.153324,-13.3379 -29.476009,20.0806 39.916949,15.8325 11.979599,-11.5012 z"
         inkscape:connector-curvature="0" />
      <path
         id="path2181"
         style="fill:none;stroke:#000000"
         d="m 508.86423,1534.5071 -4.98519,-28.9966 -26.92155,6.6898 -0.86172,22.8586 2.75149,2.9556 27.49981,-0.7559 z"
         inkscape:connector-curvature="0" />
      <path
         id="path2183"
         style="fill:none;stroke:#000000"
         d="m 192.33411,1508.4661 -4.52069,-4.422 -19.18449,0.9411 -8.85582,24.1587 17.44932,10.5714 12.94035,-4.3238 z"
         inkscape:connector-curvature="0" />
      <path
         id="path2185"
         style="fill:none;stroke:#000000"
         d="m 225.75762,1533.789 -6.03025,-25.4589 -24.43011,1.0053 -2.12182,26.3169 11.12692,6.0775 z"
         inkscape:connector-curvature="0" />
      <path
         id="path2187"
         style="fill:none;stroke:#000000"
         d="m 294.02872,1529.9225 -4.9198,-21.0104 -27.21259,2.6155 -3.46432,15.1029 13.3848,17.1062 z"
         inkscape:connector-curvature="0" />
      <path
         id="path2189"
         style="fill:none;stroke:#000000"
         d="m 444.62362,1538.3811 -8.5077,-13.5534 -27.41291,6.3836 -1.2586,2.1015 6.08127,21.2409 25.54202,1.3606 z"
         inkscape:connector-curvature="0" />
      <path
         id="path2191"
         style="fill:none;stroke:#000000"
         d="m 148.55056,1532.2621 -22.09475,-15.0123 -15.76629,21.6265 1.33643,6.8182 25.56774,10.6923 z"
         inkscape:connector-curvature="0" />
      <path
         id="path2193"
         style="fill:none;stroke:#000000"
         d="m 335.78685,1518.5386 -3.47944,-0.072 -20.50017,19.8614 3.03912,9.9515 23.75851,9.8192 9.99911,-25.0809 z"
         inkscape:connector-curvature="0" />
      <path
         id="path2195"
         style="fill:none;stroke:#000000"
         d="m 107.73808,1539.5376 -23.744123,-11.9395 -11.892669,11.418 0.821677,16.2671 24.306138,7.3322 11.857507,-16.199 z"
         inkscape:connector-curvature="0" />
      <path
         id="path2197"
         style="fill:none;stroke:#000000"
         d="m 269.89456,1546.1896 -13.6388,-17.4349 -24.77558,7.9559 9.13286,26.4415 8.79155,1.6479 20.13695,-15.2844 z"
         inkscape:connector-curvature="0" />
      <path
         id="path2199"
         style="fill:none;stroke:#000000"
         d="m 579.11059,1564.9398 -18.57642,-38.5247 -16.75843,0.4233 -7.15089,8.213 7.26432,24.8466 z"
         inkscape:connector-curvature="0" />
      <path
         id="path2201"
         style="fill:none;stroke:#000000"
         d="m 410.72503,1555.7594 -6.01321,-20.9991 -26.39999,3.3411 -0.70341,24.223 25.72387,4.7547 z"
         inkscape:connector-curvature="0" />
      <path
         id="path2203"
         style="fill:none;stroke:#000000"
         d="m 375.30594,1537.4098 -4.41788,-4.0517 -19.49327,0.8202 -10.00405,25.096 27.63364,8.4397 5.54345,-4.8416 z"
         inkscape:connector-curvature="0" />
      <path
         id="path2205"
         style="fill:none;stroke:#000000"
         d="m 476.64001,1540.0819 -2.67969,-2.8838 -26.54362,2.3849 -5.62393,17.7449 4.02518,7.37 28.04033,3.961 0.15117,-0.1096 z"
         inkscape:connector-curvature="0" />
      <path
         id="path2207"
         style="fill:none;stroke:#000000"
         d="m 175.34174,1542.1115 -17.65418,-10.6961 -6.15571,1.595 -11.53097,25.3871 0.67767,1.7801 27.43521,9.4942 1.74918,-0.9524 z"
         inkscape:connector-curvature="0" />
      <path
         id="path2209"
         style="fill:none;stroke:#000000"
         d="m 540.97891,1560.7219 -7.16595,-24.514 -22.66208,0.2759 -2.54361,2.7855 2.87994,27.3562 18.47433,3.1144 z"
         inkscape:connector-curvature="0" />
      <path
         id="path2211"
         style="fill:none;stroke:#000000"
         d="m 308.8339,1538.9405 -13.00914,-6.5726 -22.93682,14.2639 -0.33561,3.1635 19.43846,20.7798 4.36424,-0.5631 15.58449,-20.9008 z"
         inkscape:connector-curvature="0" />
      <path
         id="path2213"
         style="fill:none;stroke:#000000"
         d="m 508.51279,1567.2453 -2.83846,-26.9442 -26.08629,0.7181 -2.50206,27.0917 24.80881,4.2784 z"
         inkscape:connector-curvature="0" />
      <path
         id="path2215"
         style="fill:none;stroke:#000000"
         d="m 228.31974,1536.8201 -0.87079,-0.4308 -21.70546,8.0277 1.19508,25.5496 17.24221,3.995 13.49972,-10.0384 z"
         inkscape:connector-curvature="0" />
      <path
         id="path2217"
         style="fill:none;stroke:#000000"
         d="m 202.71118,1544.3036 -11.26751,-6.1492 -13.10098,4.3766 -5.37638,26.109 23.48257,6.6747 7.48273,-4.921 z"
         inkscape:connector-curvature="0" />
      <path
         id="path2219"
         style="fill:none;stroke:#000000"
         d="m 137.18174,1559.4935 -25.96839,-10.8623 -11.772095,16.0781 2.850525,12.839 25.12252,5.4426 10.45794,-21.6832 z"
         inkscape:connector-curvature="0" />
      <path
         id="path2221"
         style="fill:none;stroke:#000000"
         d="m 337.71327,1561.0016 -23.59523,-9.7512 -14.88036,19.9521 20.34293,17.5484 10.43755,-4.4599 z"
         inkscape:connector-curvature="0" />
      <path
         id="path2223"
         style="fill:none;stroke:#000000"
         d="m 439.23401,1558.9531 -26.07494,-1.3909 -7.48346,11.4596 3.12944,12.6727 25.65921,7.9408 8.73449,-23.4255 z"
         inkscape:connector-curvature="0" />
      <path
         id="path2225"
         style="fill:none;stroke:#000000"
         d="m 289.4657,1572.3024 -18.66217,-19.9484 -19.11949,14.5096 11.26035,23.3122 14.67136,-1.304 z"
         inkscape:connector-curvature="0" />
      <path
         id="path2227"
         style="fill:none;stroke:#000000"
         d="m 166.43528,1572.291 -26.1411,-9.0444 -10.38162,21.5244 3.59888,8.8215 26.40567,3.7114 z"
         inkscape:connector-curvature="0" />
      <path
         id="path2229"
         style="fill:none;stroke:#000000"
         d="m 367.84177,1570.5146 -27.32976,-8.3452 -7.47593,22.6243 21.32527,14.2224 12.96339,-10.4088 z"
         inkscape:connector-curvature="0" />
      <path
         id="path2231"
         style="fill:none;stroke:#000000"
         d="m 402.81451,1570.0573 -26.31081,-4.8604 -5.62548,4.9134 -0.52308,18.3004 23.25241,11.2365 12.2986,-17.0759 z"
         inkscape:connector-curvature="0" />
      <path
         id="path2233"
         style="fill:none;stroke:#000000"
         d="m 248.75565,1567.7518 -8.91324,-1.6668 -13.65924,10.1556 4.85066,25.5459 21.97116,-0.9223 7.26159,-9.2824 z"
         inkscape:connector-curvature="0" />
      <path
         id="path2235"
         style="fill:none;stroke:#000000"
         d="m 472.53167,1571.5276 -26.68348,-3.772 -8.83653,23.6976 0.58583,1.3229 25.5874,9.309 5.01543,-2.521 z"
         inkscape:connector-curvature="0" />
      <path
         id="path2237"
         style="fill:none;stroke:#000000"
         d="m 195.13777,1578.085 -23.75433,-6.754 -1.83497,1.0016 -6.88137,26.4076 2.72843,4.3804 28.53127,2.0637 z"
         inkscape:connector-curvature="0" />
      <path
         id="path2239"
         style="fill:none;stroke:#000000"
         d="m 529.11493,1572.6652 -18.60654,-3.1408 -6.67848,5.1893 0.86932,26.245 14.54358,5.1213 14.98963,-8.5493 z"
         inkscape:connector-curvature="0" />
      <path
         id="path2241"
         style="fill:none;stroke:#000000"
         d="m 223.22004,1576.8454 -17.44858,-4.0441 -7.59419,4.9965 -1.25821,28.1575 28.15862,0.3288 3.08862,-3.3902 z"
         inkscape:connector-curvature="0" />
      <path
         id="path2243"
         style="fill:none;stroke:#000000"
         d="m 500.82518,1575.2731 -24.99397,-4.3124 -0.1701,0.1284 -4.40318,28.4863 19.67627,7.3286 10.74516,-5.7525 z"
         inkscape:connector-curvature="0" />
      <path
         id="path2245"
         style="fill:none;stroke:#000000"
         d="m 127.15994,1586.0296 -25.47213,-5.5181 -8.332343,11.9055 4.400127,17.5143 25.397676,1.1604 7.63577,-16.1689 z"
         inkscape:connector-curvature="0" />
      <path
         id="path2247"
         style="fill:none;stroke:#000000"
         d="m 317.53437,1590.977 -20.82672,-17.9641 -4.4447,0.5745 -11.98793,16.7622 14.1037,21.3997 18.17046,-6.8334 z"
         inkscape:connector-curvature="0" />
      <path
         id="path2249"
         style="fill:none;stroke:#000000"
         d="m 434.27528,1592.7421 -26.13921,-8.0882 -12.44598,17.2762 0.96754,5.605 24.08695,13.8293 2.33953,-0.6538 11.73919,-26.7326 z"
         inkscape:connector-curvature="0" />
      <path
         id="path2251"
         style="fill:none;stroke:#000000"
         d="m 352.865,1601.6504 -21.78404,-14.5247 -10.57286,4.5165 -5.04567,14.109 17.56197,19.6875 19.03029,-13.8217 z"
         inkscape:connector-curvature="0" />
      <path
         id="path2253"
         style="fill:none;stroke:#000000"
         d="m 160.13065,1600.388 -26.79874,-3.7681 -7.5806,16.0516 6.08354,13.8595 25.42941,-0.9486 5.62355,-20.7685 z"
         inkscape:connector-curvature="0" />
      <path
         id="path2255"
         style="fill:none;stroke:#000000"
         d="m 292.06865,1613.7373 -14.39243,-21.8343 -14.85202,1.3191 -7.35686,9.4034 9.06821,25.6252 24.65314,-7.8576 z"
         inkscape:connector-curvature="0" />
      <path
         id="path2257"
         style="fill:none;stroke:#000000"
         d="m 392.73827,1602.5839 -23.7203,-11.4595 -13.11987,10.5336 -0.82167,10.1064 21.50325,17.6088 17.10349,-21.2939 z"
         inkscape:connector-curvature="0" />
      <path
         id="path2259"
         style="fill:none;stroke:#000000"
         d="m 461.51434,1604.6967 -24.2268,-8.8138 -11.18738,25.4815 20.12221,12.1172 9.46396,-2.8913 z"
         inkscape:connector-curvature="0" />
      <path
         id="path2261"
         style="fill:none;stroke:#000000"
         d="m 194.37091,1608.2495 -28.71801,-2.0788 -5.58311,20.6211 6.50646,9.8872 25.81153,-2.9707 z"
         inkscape:connector-curvature="0" />
      <path
         id="path2263"
         style="fill:none;stroke:#000000"
         d="m 261.95,1630.0082 -9.23717,-26.1052 -22.22704,0.9335 -3.16232,3.4734 3.36491,27.4054 2.55684,1.9389 28.51957,-7.3021 z"
         inkscape:connector-curvature="0" />
      <path
         id="path2265"
         style="fill:none;stroke:#000000"
         d="m 489.48659,1609.5912 -19.8198,-7.3814 -5.06835,2.5512 -5.9112,26.2752 15.01609,8.8479 14.64566,-4.9058 z"
         inkscape:connector-curvature="0" />
      <path
         id="path2267"
         style="fill:none;stroke:#000000"
         d="m 224.39887,1609.3002 -27.05236,-0.3175 -1.98914,25.542 5.43874,5.8205 26.79608,-5.0381 z"
         inkscape:connector-curvature="0" />
      <path
         id="path2269"
         style="fill:none;stroke:#000000"
         d="m 331.19886,1627.9332 -17.90021,-20.0655 -18.38552,6.909 -2.92873,6.7691 13.51331,24.6236 1.02766,0.2987 24.19919,-15.6171 z"
         inkscape:connector-curvature="0" />
      <path
         id="path2271"
         style="fill:none;stroke:#000000"
         d="m 418.53354,1623.5793 -22.87369,-13.1301 -16.81135,20.9272 19.71404,17.4047 7.31337,-0.7521 z"
         inkscape:connector-curvature="0" />
      <path
         id="path2273"
         style="fill:none;stroke:#000000"
         d="m 517.99939,1608.8466 -14.65323,-5.159 -10.82839,5.7978 -1.1527,25.7272 31.77446,17.5106 z"
         inkscape:connector-curvature="0" />
      <path
         id="path2275"
         style="fill:none;stroke:#000000"
         d="m 374.6623,1631.709 -21.21223,-17.3707 -19.25138,13.9842 -0.4902,3.0161 17.04946,21.4488 4.43108,0.4082 z"
         inkscape:connector-curvature="0" />
      <path
         id="path2277"
         style="fill:none;stroke:#000000"
         d="m 302.42683,1646.8573 -12.85,-23.4141 -24.93772,7.9483 -0.22863,0.4233 7.91583,25.9729 5.65681,2.7704 z"
         inkscape:connector-curvature="0" />
      <path
         id="path2279"
         style="fill:none;stroke:#000000"
         d="m 444.23056,1635.8098 -20.27338,-12.2042 -2.37735,0.6615 -12.8504,24.8315 14.67216,12.9676 13.35682,-1.716 z"
         inkscape:connector-curvature="0" />
      <path
         id="path2281"
         style="fill:none;stroke:#000000"
         d="m 164.19592,1638.5613 -6.55824,-9.9666 -25.77034,0.96 -14.51074,33.0822 42.95584,-8.7194 z"
         inkscape:connector-curvature="0" />
      <path
         id="path2283"
         style="fill:none;stroke:#000000"
         d="m 198.70072,1642.5336 -5.48673,-5.8772 -26.17965,3.0161 -3.85437,15.239 9.72851,13.9389 24.33978,-7.1622 z"
         inkscape:connector-curvature="0" />
      <path
         id="path2285"
         style="fill:none;stroke:#000000"
         d="m 269.24524,1658.0485 -7.4895,-24.5745 -27.20317,6.9657 2.38904,22.7679 8.482,6.119 z"
         inkscape:connector-curvature="0" />
      <path
         id="path2287"
         style="fill:none;stroke:#000000"
         d="m 231.47754,1640.1109 -2.59199,-1.9691 -27.20731,5.1174 -1.44226,19.0148 9.78104,9.9402 23.86733,-9.1729 z"
         inkscape:connector-curvature="0" />
      <path
         id="path2289"
         style="fill:none;stroke:#000000"
         d="m 347.93842,1654.0989 -16.16054,-20.3263 -23.04224,14.8687 11.22102,21.8079 8.65058,2.3168 z"
         inkscape:connector-curvature="0" />
      <path
         id="path2291"
         style="fill:none;stroke:#000000"
         d="m 396.10582,1650.6482 -19.17882,-16.936 -19.15312,21.1312 13.42827,17.333 11.30117,0.7597 z"
         inkscape:connector-curvature="0" />
      <path
         id="path2293"
         style="fill:none;stroke:#000000"
         d="m 471.90428,1642.3332 -15.12945,-8.9158 -9.54333,2.9177 -7.57418,24.8769 26.88759,22.7074 z"
         inkscape:connector-curvature="0" />
      <path
         id="path2295"
         style="fill:none;stroke:#000000"
         d="m 421.11875,1664.0844 -14.77794,-13.0621 -7.38142,0.756 -13.80284,22.6091 10.09892,12.6425 16.55432,0.6652 z"
         inkscape:connector-curvature="0" />
      <path
         id="path2297"
         style="fill:none;stroke:#000000"
         d="m 305.71653,1649.3821 -1.05862,-0.3099 -24.83114,13.9199 5.87152,19.5969 11.50977,5.2875 19.81231,-16.524 z"
         inkscape:connector-curvature="0" />
      <path
         id="path2299"
         style="fill:none;stroke:#000000"
         d="m 355.00989,1656.2154 -4.48176,-0.4119 -19.62256,18.9467 8.43972,16.1689 14.28735,3.428 14.90341,-20.6778 z"
         inkscape:connector-curvature="0" />
      <path
         id="path2301"
         style="fill:none;stroke:#000000"
         d="m 276.77217,1663.3323 -5.71163,-2.7968 -24.16972,11.4406 1.96613,16.8378 13.10325,8.9423 20.72615,-14.6872 z"
         inkscape:connector-curvature="0" />
      <path
         id="path2303"
         style="fill:none;stroke:#000000"
         d="m 243.83887,1671.908 -8.55117,-6.1681 -24.19429,9.3014 -1.82853,35.3688 36.55448,-21.5357 z"
         inkscape:connector-curvature="0" />
      <path
         id="path2305"
         style="fill:none;stroke:#000000"
         d="m 328.00969,1675.7367 -8.72465,-2.3357 -20.09007,16.7546 4.57852,14.2564 16.24516,6.9279 16.49236,-19.3172 z"
         inkscape:connector-curvature="0" />
      <path
         id="path2307"
         style="fill:none;stroke:#000000"
         d="m 382.54867,1675.9672 -11.3896,-0.7634 -15.1049,20.9537 17.4187,31.321 19.25026,-38.778 z"
         inkscape:connector-curvature="0" />
      <path
         id="path2309"
         style="fill:none;stroke:#000000"
         d="m 296.20799,1690.7452 -11.59975,-5.3291 -21.00092,14.88 5.33213,36.1663 31.88148,-31.355 z"
         inkscape:connector-curvature="0" />
    </g>
  </g>
</svg>
